<svg version="1.1" id="Layer_1" xmlns="http://www.w3.org/2000/svg" xmlns:xlink="http://www.w3.org/1999/xlink" x="0px" y="0px"
	 width="100%" viewBox="0 0 800 800" enable-background="new 0 0 800 800" xml:space="preserve">
<path fill="#000000" opacity="1.000000" stroke="none" 
	d="
M801.000000,312.000000 
	C801.000000,475.333344 801.000000,638.166687 801.000000,801.000000 
	C534.333313,801.000000 267.666656,801.000000 1.000000,801.000000 
	C1.000000,534.333313 1.000000,267.666656 1.000000,1.000000 
	C267.666656,1.000000 534.333313,1.000000 801.000000,1.000000 
	C801.000000,104.500000 801.000000,208.000000 801.000000,312.000000 
M502.897614,249.520096 
	C502.871399,249.341721 502.845154,249.163361 502.929993,248.202560 
	C502.894440,247.151413 502.858887,246.100281 502.987366,244.211960 
	C503.262329,241.250137 503.873260,238.274582 503.752838,235.328918 
	C503.285461,223.898788 503.162811,212.412308 501.868073,201.065887 
	C497.269623,160.767441 478.813904,129.099060 442.766449,108.921097 
	C437.769897,106.124222 432.276794,104.214394 427.004425,101.954811 
	C427.004425,101.954811 427.064880,101.966301 426.851990,101.334602 
	C426.221222,101.131248 425.590454,100.927887 424.486572,100.246315 
	C415.842529,97.771500 407.198486,95.296684 397.804291,92.616966 
	C377.275330,87.062248 356.300415,84.007950 335.116180,83.703842 
	C294.463165,83.120255 253.798401,83.332207 213.138428,83.297188 
	C209.826950,83.294334 206.480942,83.732086 203.209625,84.301888 
	C194.162430,85.877747 187.749115,90.682487 186.150497,100.102989 
	C185.069870,106.470985 184.290039,112.980522 184.285645,119.427376 
	C184.181320,272.243317 184.245895,425.059448 184.088715,577.875305 
	C184.078934,587.376770 184.392258,596.163208 193.272003,602.636536 
	C198.276093,612.244690 210.315491,612.160767 219.822571,609.846436 
	C227.025742,608.092896 230.213745,601.381226 230.022430,590.151245 
	C230.069778,587.488708 230.158432,584.826172 230.158539,582.163635 
	C230.164734,433.985260 230.164032,285.806854 230.157059,137.628479 
	C230.156982,135.800323 230.066818,133.972168 230.927979,131.897858 
	C262.026428,131.832596 293.124969,131.697174 324.223328,131.727051 
	C344.512787,131.746552 364.689270,133.207687 384.495667,137.922607 
	C406.847961,143.243561 427.372589,152.030685 443.191467,169.545166 
	C443.698242,170.106277 444.798462,170.131393 445.944427,171.127869 
	C447.969116,175.136856 450.483856,178.975861 451.942383,183.181198 
	C466.017151,223.762115 459.675659,261.486511 434.413147,295.733673 
	C422.286774,312.172791 404.142914,320.287201 384.614960,323.925018 
	C371.129486,326.437164 357.175873,326.584534 343.407898,327.381989 
	C333.440338,327.959290 323.394257,327.384552 313.455414,328.201843 
	C301.472015,329.187256 295.037292,336.503784 294.021149,348.432953 
	C293.197601,358.100647 298.280334,365.369263 303.614807,372.410217 
	C347.381744,430.178162 391.225159,487.888184 435.146149,545.539001 
	C437.525848,548.662598 438.433167,551.736511 438.426025,555.594238 
	C438.328522,608.252319 438.401367,660.910706 438.292969,713.568787 
	C438.281311,719.245239 440.091278,723.262512 445.210419,725.898499 
	C446.784088,728.054199 447.957458,731.450134 450.012787,732.113403 
	C454.621613,733.600830 459.726807,734.571960 464.525848,734.241821 
	C475.470490,733.488770 478.183807,729.957764 478.047485,718.136353 
	C478.078003,681.971375 478.097198,645.806458 478.170319,609.641541 
	C478.174225,607.698608 478.630920,605.756653 479.382111,604.295776 
	C499.929474,631.343811 520.447510,658.414185 541.036316,685.430664 
	C551.626709,699.327393 562.343079,713.128174 572.891846,727.601990 
	C573.204285,728.108337 573.516724,728.614746 574.125854,729.749268 
	C576.207336,734.002869 579.571228,735.249756 584.251953,735.017883 
	C591.857056,734.641235 599.494690,734.922363 607.118591,734.924194 
	C613.005859,734.925598 618.893066,734.924438 624.780334,734.924438 
	C625.022156,734.489624 625.263977,734.054749 625.505737,733.619934 
	C623.728027,731.702148 621.950317,729.784363 620.049133,727.079834 
	C621.527222,726.033875 623.005371,724.987854 624.936890,723.621033 
	C623.881653,722.057312 622.711060,720.128601 621.354675,718.340820 
	C581.139526,665.335022 540.899109,612.348389 500.717499,559.317200 
	C499.806519,558.114929 499.527374,556.433899 499.487823,554.582214 
	C511.989960,542.151917 524.478210,529.707642 536.996948,517.294128 
	C568.757996,485.800018 600.517822,454.304504 632.327271,422.859314 
	C635.262878,419.957306 636.275208,417.186279 633.142761,413.129120 
	C633.512634,410.682404 634.822632,407.889771 634.073914,405.854553 
	C631.927490,400.019623 619.231262,395.606140 612.235535,398.011169 
	C606.547668,397.078217 602.388916,399.760590 598.554993,403.553162 
	C560.147095,441.546539 521.711121,479.511627 483.242645,517.443604 
	C481.774078,518.891663 479.895111,519.923462 478.134521,520.197571 
	C478.066040,482.445923 478.006836,444.694275 477.922455,406.942657 
	C477.901581,397.612244 469.311310,392.012207 459.081055,395.258545 
	C456.417847,395.278015 453.749725,395.200409 451.092285,395.334503 
	C441.897308,395.798492 438.387604,399.555573 438.372253,408.791901 
	C438.334869,431.264160 438.289032,453.736450 437.513855,476.098297 
	C420.873260,454.312103 404.203125,432.548401 387.603638,410.730927 
	C378.353302,398.572815 369.220459,386.325348 360.961884,374.015503 
	C370.202271,373.332703 379.480347,372.974976 388.676392,371.909485 
	C424.164154,367.797699 453.926300,353.419617 474.817322,323.306549 
	C485.424683,308.016663 494.039062,291.827240 498.653534,273.139343 
	C498.682312,272.767273 498.711090,272.395172 499.005524,271.355927 
	C499.079102,270.409760 499.152710,269.463593 499.644196,268.128235 
	C499.677460,267.759125 499.710693,267.389984 499.998444,266.432770 
	C500.085876,265.807953 500.173309,265.183136 500.656067,264.142639 
	C500.666718,263.771088 500.677399,263.399506 500.936859,262.147827 
	C500.310944,261.560974 499.685028,260.974121 498.962555,260.473694 
	C498.962555,260.473694 499.039886,260.577728 500.238770,260.565979 
	C500.190857,259.876190 500.142914,259.186371 500.025208,258.536285 
	C500.025208,258.536285 500.072906,258.600891 500.832184,258.850922 
	C501.125244,257.911102 501.418304,256.971283 501.986359,255.307114 
	C502.212311,253.540726 502.438232,251.774338 502.897614,249.520096 
z"/>
<path fill="#FCFCFC" opacity="1.000000" stroke="none" 
	d="
M438.246643,476.208710 
	C438.289032,453.736450 438.334869,431.264160 438.372253,408.791901 
	C438.387604,399.555573 441.897308,395.798492 451.092285,395.334503 
	C453.749725,395.200409 456.417847,395.278015 459.796387,395.466797 
	C469.535339,398.461182 470.930878,400.353241 470.931580,409.902679 
	C470.934418,447.802063 470.930695,485.701447 470.929413,523.600830 
	C470.929352,525.264648 470.929413,526.928467 470.929413,529.907959 
	C474.055573,526.145752 476.131470,523.647461 478.207397,521.149231 
	C479.895111,519.923462 481.774078,518.891663 483.242645,517.443604 
	C521.711121,479.511627 560.147095,441.546539 598.554993,403.553162 
	C602.388916,399.760590 606.547668,397.078217 612.932678,398.272583 
	C617.056519,399.773926 620.709473,400.604248 623.859863,402.344391 
	C629.363953,405.384705 629.657104,409.418243 625.197632,413.830139 
	C580.380005,458.169342 535.546631,502.492737 490.808472,546.911987 
	C489.199677,548.509277 488.529572,551.052063 487.525879,553.486206 
	C488.654877,554.968384 489.679993,556.118469 490.784424,557.222717 
	C490.863739,557.176819 490.682007,557.200806 490.705627,557.504517 
	C491.139069,558.226501 491.548950,558.644775 491.976624,559.032471 
	C491.994385,559.001892 491.931274,559.033691 491.974426,559.350525 
	C492.858368,560.584595 493.699127,561.501831 494.660095,562.459106 
	C494.780273,562.499146 494.530334,562.457031 494.583252,562.765259 
	C495.334045,563.801453 496.031982,564.529419 496.805420,565.210815 
	C496.880981,565.164185 496.705536,565.191406 496.750305,565.518799 
	C497.497681,566.690002 498.200256,567.533813 499.029022,568.681213 
	C503.526215,574.916870 507.820526,580.907410 512.284546,586.768738 
	C521.084900,598.323792 530.003479,609.788635 538.828552,621.324951 
	C549.177368,634.853088 559.478638,648.417603 569.881958,662.273682 
	C570.548401,663.145630 571.133362,663.710083 571.809326,664.215149 
	C571.900452,664.155701 571.692139,664.218384 571.745605,664.564514 
	C574.809509,668.687073 577.819946,672.463440 580.840027,676.182007 
	C580.849609,676.124146 580.738464,676.161682 580.769043,676.442261 
	C581.096008,676.922729 581.392456,677.122681 581.735046,677.207886 
	C581.781250,677.093018 581.634338,677.292297 581.677368,677.606873 
	C582.412048,678.682861 583.103699,679.444336 583.837769,680.150330 
	C583.880127,680.094849 583.749390,680.143860 583.790527,680.461914 
	C584.539856,681.543152 585.248108,682.306274 585.973755,683.036499 
	C585.991089,683.003601 585.924194,683.036377 585.962769,683.338562 
	C586.565430,684.183044 587.129578,684.725281 587.837830,685.225830 
	C587.981873,685.184082 587.686157,685.233459 587.720947,685.551025 
	C588.455872,686.633240 589.155884,687.397827 589.882446,688.117859 
	C589.909058,688.073242 589.806885,688.091919 589.830444,688.378174 
	C590.151672,688.871765 590.449402,689.079224 590.780151,689.215454 
	C590.813232,689.144287 590.683960,689.233398 590.701111,689.494385 
	C590.976868,689.966187 591.235474,690.177124 591.534973,690.398804 
	C591.575867,690.409546 591.529663,690.480469 591.609680,690.801147 
	C593.105042,692.879639 594.520386,694.637573 596.062134,696.696960 
	C603.257996,706.290283 610.342346,715.570862 617.342712,724.914429 
	C617.624512,725.290527 617.111450,726.262085 616.511658,726.863770 
	C601.703857,726.838379 587.353210,726.905334 573.002502,726.972290 
	C562.343079,713.128174 551.626709,699.327393 541.036316,685.430664 
	C520.447510,658.414185 499.929474,631.343811 479.093781,603.738770 
	C476.503418,600.180176 474.201355,597.178589 471.899323,594.176941 
	C471.573944,594.399841 471.248535,594.622803 470.923126,594.845703 
	C470.923126,595.667419 470.923096,596.489075 470.923157,597.310730 
	C470.925995,635.579285 470.848572,673.848267 471.030182,712.115967 
	C471.053619,717.062683 469.970306,721.026245 465.881348,724.425293 
	C459.009888,727.316101 452.328552,727.811340 445.561768,725.276367 
	C440.091278,723.262512 438.281311,719.245239 438.292969,713.568787 
	C438.401367,660.910706 438.328522,608.252319 438.426025,555.594238 
	C438.433167,551.736511 437.525848,548.662598 435.146149,545.539001 
	C391.225159,487.888184 347.381744,430.178162 303.614807,372.410217 
	C298.280334,365.369263 293.197601,358.100647 294.021149,348.432953 
	C295.037292,336.503784 301.472015,329.187256 313.455414,328.201843 
	C323.394257,327.384552 333.440338,327.959290 343.407898,327.381989 
	C357.175873,326.584534 371.129486,326.437164 384.614960,323.925018 
	C404.142914,320.287201 422.286774,312.172791 434.413147,295.733673 
	C459.675659,261.486511 466.017151,223.762115 451.942383,183.181198 
	C450.483856,178.975861 447.969116,175.136856 445.770264,170.506088 
	C436.097778,154.159622 421.789398,144.220490 405.572174,136.556168 
	C388.701630,128.583069 370.832489,124.564110 352.101929,122.653595 
	C343.760803,121.606804 335.657074,120.370033 327.542786,120.296349 
	C293.885712,119.990746 260.224426,120.145805 226.567535,119.831123 
	C221.707001,119.785683 220.902420,121.400902 220.905411,125.776421 
	C221.009308,277.913483 221.013092,430.050659 220.895432,582.187683 
	C220.891922,586.719543 219.434784,591.250305 218.714325,595.748047 
	C218.773270,595.714600 218.638168,595.703857 218.339005,595.814697 
	C216.283188,597.588684 214.526550,599.251770 212.356079,600.922607 
	C205.730682,601.278015 199.519135,601.625793 193.307571,601.973572 
	C184.392258,596.163208 184.078934,587.376770 184.088715,577.875305 
	C184.245895,425.059448 184.181320,272.243317 184.285645,119.427376 
	C184.290039,112.980522 185.069870,106.470985 186.150497,100.102989 
	C187.749115,90.682487 194.162430,85.877747 203.209625,84.301888 
	C206.480942,83.732086 209.826950,83.294334 213.138428,83.297188 
	C253.798401,83.332207 294.463165,83.120255 335.116180,83.703842 
	C356.300415,84.007950 377.275330,87.062248 398.437561,92.946854 
	C409.010864,96.938110 418.950897,100.599472 428.890015,104.209167 
	C428.889069,104.157501 428.802277,104.213615 428.964325,104.483994 
	C429.717804,104.924263 430.309265,105.094154 430.900543,105.209984 
	C430.900391,105.155930 430.806366,105.209244 430.963501,105.483307 
	C431.716614,105.922066 432.312592,106.086777 432.908722,106.194839 
	C432.908844,106.138191 432.806091,106.185951 432.972412,106.483681 
	C435.378998,107.943207 437.619232,109.104996 439.873657,110.201096 
	C439.887817,110.135399 439.788391,110.225830 439.923279,110.518585 
	C441.000427,111.285072 441.942688,111.758797 442.896667,112.172531 
	C442.908386,112.112549 442.814514,112.190895 442.945740,112.483582 
	C444.002930,113.277939 444.928833,113.779617 445.860596,114.226898 
	C445.866455,114.172516 445.770050,114.224228 445.911835,114.521248 
	C447.340546,115.604317 448.627472,116.390358 449.926666,117.119949 
	C449.938904,117.063507 449.852600,117.140274 449.970093,117.450684 
	C451.693817,118.907486 453.300049,120.053886 454.910156,121.153603 
	C454.914001,121.106918 454.826172,121.139549 454.940918,121.456421 
	C457.263458,123.646286 459.471191,125.519272 461.714783,127.309334 
	C461.750641,127.226402 461.610321,127.340256 461.681580,127.634659 
	C462.350403,128.431320 462.948029,128.933578 463.647247,129.367310 
	C463.748871,129.298752 463.592438,129.487518 463.639648,129.713211 
	C463.848938,130.239822 464.100800,130.394287 464.487244,130.419098 
	C464.532043,130.435898 464.533661,130.531616 464.608582,130.827652 
	C465.426758,131.786972 466.170044,132.450256 466.941376,133.078781 
	C466.969421,133.044022 466.880219,133.048843 466.907806,133.335205 
	C467.242706,133.814011 467.549988,134.006454 467.862793,134.150177 
	C467.868286,134.101456 467.777161,134.137741 467.806885,134.447739 
	C468.431091,135.299393 469.025543,135.841049 469.727417,136.205902 
	C469.834839,136.029099 469.586670,136.360199 469.647095,136.667908 
	C470.410217,137.715927 471.112885,138.456207 471.841431,139.149933 
	C471.867279,139.103378 471.761932,139.119263 471.801239,139.458252 
	C472.554047,140.684921 473.267548,141.572601 474.093994,142.763794 
	C476.486847,146.351746 478.766815,149.636185 480.965942,153.303589 
	C483.912964,161.480209 486.940796,169.273880 489.940613,177.450912 
	C496.767914,198.804855 496.724335,220.320160 494.807800,242.326111 
	C493.171570,250.157089 491.704376,257.631958 490.083069,265.484711 
	C488.861450,269.737091 488.356934,273.886963 486.621246,277.434479 
	C481.363251,288.180969 475.628326,298.694122 469.845856,309.435577 
	C469.396301,310.049072 469.180115,310.525238 468.984589,311.002075 
	C469.005280,311.002747 468.988708,310.964844 468.719360,311.105652 
	C468.215179,311.784698 467.980316,312.322998 467.809662,312.861694 
	C467.873871,312.862122 467.772705,312.783020 467.463806,312.886963 
	C466.350250,314.275208 465.545593,315.559479 464.812347,316.851013 
	C464.883789,316.858215 464.768951,316.771912 464.469482,316.874512 
	C463.642548,317.869049 463.115051,318.761017 462.637665,319.801758 
	C462.687805,319.950531 462.633545,319.641235 462.325409,319.766235 
	C460.781219,321.543060 459.545166,323.194885 458.303406,324.876343 
	C458.297729,324.906006 458.241089,324.885254 457.939331,325.013031 
	C457.314453,325.672272 456.991364,326.203735 456.799011,326.789673 
	C456.929779,326.844208 456.692383,326.689636 456.423981,326.735474 
	C455.998199,327.089386 455.840820,327.397491 455.848022,327.814392 
	C456.012604,327.923218 455.696075,327.686646 455.426422,327.735229 
	C455.001801,328.096069 454.846832,328.408356 454.837952,328.819855 
	C454.984070,328.919067 454.711487,328.694397 454.439362,328.739258 
	C454.007690,329.095917 453.848145,329.407745 453.775391,329.824768 
	C453.862244,329.929962 453.732117,329.690155 453.403137,329.767731 
	C452.509155,330.532257 451.944153,331.219177 451.326508,331.900360 
	C451.273895,331.894623 451.210663,331.979584 450.884338,332.084167 
	C449.310760,333.406342 448.063538,334.623962 446.859375,335.866760 
	C446.902435,335.891876 446.897156,335.792297 446.612976,335.825928 
	C446.120819,336.158813 445.912903,336.458038 445.764252,336.771912 
	C445.823517,336.786530 445.772491,336.675598 445.450470,336.731689 
	C443.864441,337.871368 442.600464,338.954987 441.084534,340.289276 
	C434.221191,344.384949 427.609802,348.229950 420.608429,351.993103 
	C403.894196,357.896454 387.091888,361.721558 369.397583,363.219208 
	C367.341278,363.612640 365.631378,363.868286 363.461853,364.067535 
	C356.796722,364.011139 350.591217,364.011139 343.380981,364.011139 
	C344.925079,365.774658 345.930206,366.922638 346.965515,368.048157 
	C346.995697,368.025696 346.920563,368.021942 346.948273,368.354584 
	C347.302826,368.973907 347.629639,369.260620 347.987701,369.867615 
	C377.873016,409.377777 407.727112,448.567657 438.246643,488.631012 
	C438.246643,483.660400 438.246643,479.934570 438.246643,476.208710 
z"/>
<path fill="#2449AD" opacity="1.000000" stroke="none" 
	d="
M230.018707,132.144012 
	C230.066818,133.972168 230.156982,135.800323 230.157059,137.628479 
	C230.164032,285.806854 230.164734,433.985260 230.158539,582.163635 
	C230.158432,584.826172 230.069778,587.488708 229.591095,590.678223 
	C226.009445,595.382324 223.497971,600.445557 217.146057,599.665894 
	C217.743179,598.139648 218.190674,596.921753 218.638168,595.703857 
	C218.638168,595.703857 218.773270,595.714600 219.097870,595.683289 
	C220.285980,592.582886 221.902512,589.514465 221.904953,586.444702 
	C222.027191,433.188049 222.033051,279.931274 221.907272,126.674675 
	C221.903427,121.973724 223.302246,120.881691 227.805420,120.907410 
	C258.955414,121.085297 290.107056,120.975060 321.258026,121.017982 
	C322.837128,121.020157 324.415436,121.581482 325.527618,121.924988 
	C296.798706,121.982491 268.536285,121.999092 240.273880,122.011597 
	C229.896286,122.016190 229.896286,122.011780 230.018707,132.144012 
z"/>
<path fill="#2247AB" opacity="1.000000" stroke="none" 
	d="
M487.421997,553.154175 
	C488.529572,551.052063 489.199677,548.509277 490.808472,546.911987 
	C535.546631,502.492737 580.380005,458.169342 625.197632,413.830139 
	C629.657104,409.418243 629.363953,405.384705 623.859863,402.344391 
	C620.709473,400.604248 617.056519,399.773926 613.376709,398.288635 
	C619.231262,395.606140 631.927490,400.019623 634.073914,405.854553 
	C634.822632,407.889771 633.512634,410.682404 632.781982,413.516663 
	C631.313110,414.524506 629.996277,414.934845 629.128784,415.797211 
	C619.498169,425.371033 610.010498,435.089081 600.343872,444.626007 
	C569.929626,474.632355 539.430847,504.553070 509.027435,534.570312 
	C503.782043,539.749146 498.842102,545.237305 493.137573,551.238464 
	C495.560974,552.795898 497.257233,553.886047 498.953491,554.976196 
	C499.527374,556.433899 499.806519,558.114929 500.717499,559.317200 
	C540.899109,612.348389 581.139526,665.335022 621.354675,718.340820 
	C622.711060,720.128601 623.881653,722.057312 624.936890,723.621033 
	C623.005371,724.987854 621.527222,726.033875 619.715576,727.480591 
	C618.592896,727.873779 617.803650,727.866150 617.003052,727.632935 
	C616.991577,727.407349 616.968750,726.956177 616.968750,726.956177 
	C617.111450,726.262085 617.624512,725.290527 617.342712,724.914429 
	C610.342346,715.570862 603.257996,706.290283 596.067078,696.312622 
	C594.473633,693.911377 593.001648,692.195923 591.529663,690.480469 
	C591.529663,690.480469 591.575867,690.409546 591.583130,690.111572 
	C591.288269,689.620239 590.986084,689.426819 590.683960,689.233398 
	C590.683960,689.233398 590.813232,689.144287 590.764160,688.928101 
	C590.412354,688.505188 590.109619,688.298523 589.806885,688.091919 
	C589.806885,688.091919 589.909058,688.073242 589.907593,687.771973 
	C589.166077,686.724976 588.426147,685.979187 587.686157,685.233459 
	C587.686157,685.233459 587.981873,685.184082 587.897461,684.885132 
	C587.183472,684.069580 586.553833,683.552979 585.924194,683.036377 
	C585.924194,683.036377 585.991089,683.003601 585.970825,682.698425 
	C585.216858,681.643433 584.483093,680.893677 583.749390,680.143860 
	C583.749390,680.143860 583.880127,680.094849 583.876282,679.800903 
	C583.126404,678.768799 582.380371,678.030518 581.634338,677.292297 
	C581.634338,677.292297 581.781250,677.093018 581.722656,676.919800 
	C581.355591,676.551636 581.047058,676.356628 580.738464,676.161621 
	C580.738464,676.161682 580.849609,676.124146 580.792725,675.829834 
	C577.721252,671.763123 574.706665,667.990784 571.692139,664.218384 
	C571.692139,664.218384 571.900452,664.155701 571.851562,663.861877 
	C571.135254,663.034119 570.467896,662.500244 569.800476,661.966309 
	C559.478638,648.417603 549.177368,634.853088 538.828552,621.324951 
	C530.003479,609.788635 521.084900,598.323792 512.284546,586.768738 
	C507.820526,580.907410 503.526215,574.916870 499.046021,568.314819 
	C498.193085,566.827148 497.449310,566.009277 496.705536,565.191406 
	C496.705536,565.191406 496.880981,565.164185 496.861572,564.856750 
	C496.071533,563.851868 495.300934,563.154480 494.530334,562.457031 
	C494.530334,562.457031 494.780273,562.499146 494.699860,562.107605 
	C493.723389,560.821960 492.827332,559.927856 491.931274,559.033691 
	C491.931274,559.033691 491.994385,559.001892 491.978088,558.712036 
	C491.535156,558.015015 491.108582,557.607910 490.682007,557.200806 
	C490.682007,557.200806 490.863739,557.176819 490.844788,556.860107 
	C489.691254,555.413635 488.556610,554.283875 487.421997,553.154175 
z"/>
<path fill="#2861F6" opacity="1.000000" stroke="none" 
	d="
M230.473358,132.020935 
	C229.896286,122.011780 229.896286,122.016190 240.273880,122.011597 
	C268.536285,121.999092 296.798706,121.982491 325.995850,121.967949 
	C335.398560,122.311745 343.866486,122.655113 352.334442,122.998482 
	C370.832489,124.564110 388.701630,128.583069 405.572174,136.556168 
	C421.789398,144.220490 436.097778,154.159622 445.609070,170.145340 
	C444.798462,170.131393 443.698242,170.106277 443.191467,169.545166 
	C427.372589,152.030685 406.847961,143.243561 384.495667,137.922607 
	C364.689270,133.207687 344.512787,131.746552 324.223328,131.727051 
	C293.124969,131.697174 262.026428,131.832596 230.473358,132.020935 
z"/>
<path fill="#1F46AF" opacity="1.000000" stroke="none" 
	d="
M470.079224,309.298218 
	C475.628326,298.694122 481.363251,288.180969 486.621246,277.434479 
	C488.356934,273.886963 488.861450,269.737091 490.430420,265.376404 
	C492.280212,257.250122 493.628540,249.610077 494.976868,241.970016 
	C496.724335,220.320160 496.767914,198.804855 489.981567,177.032532 
	C487.049255,168.460724 484.048035,160.690674 481.046783,152.920624 
	C478.766815,149.636185 476.486847,146.351746 474.093445,142.385895 
	C473.240631,140.842758 472.501282,139.981018 471.761932,139.119263 
	C471.761932,139.119263 471.867279,139.103378 471.879028,138.798309 
	C471.122711,137.782242 470.354706,137.071213 469.586670,136.360199 
	C469.586670,136.360199 469.834839,136.029099 469.745789,135.875290 
	C469.030243,135.193573 468.403687,134.665649 467.777161,134.137741 
	C467.777161,134.137741 467.868286,134.101456 467.817932,133.875610 
	C467.471802,133.449448 467.175995,133.249146 466.880219,133.048843 
	C466.880219,133.048843 466.969421,133.044022 466.948242,132.731277 
	C466.129242,131.789566 465.331451,131.160583 464.533661,130.531616 
	C464.533661,130.531616 464.532043,130.435898 464.529907,130.141907 
	C464.215973,129.727783 463.904205,129.607651 463.592438,129.487518 
	C463.592438,129.487518 463.748871,129.298752 463.682800,129.030060 
	C462.947906,128.287674 462.279114,127.813965 461.610321,127.340256 
	C461.610321,127.340256 461.750641,127.226402 461.691650,126.959084 
	C459.363800,124.841026 457.095001,122.990288 454.826172,121.139549 
	C454.826172,121.139549 454.914001,121.106918 454.827393,120.816940 
	C453.111389,119.398064 451.481995,118.269165 449.852600,117.140274 
	C449.852600,117.140274 449.938904,117.063507 449.830566,116.787766 
	C448.404816,115.749420 447.087433,114.986824 445.770050,114.224228 
	C445.770050,114.224228 445.866455,114.172516 445.773376,113.890266 
	C444.725037,113.135643 443.769775,112.663269 442.814514,112.190895 
	C442.814514,112.190895 442.908386,112.112549 442.800659,111.839645 
	C441.724731,111.119781 440.756561,110.672806 439.788391,110.225830 
	C439.788391,110.225830 439.887817,110.135399 439.781921,109.859726 
	C437.386047,108.451347 435.096069,107.318642 432.806091,106.185944 
	C432.806091,106.185951 432.908844,106.138191 432.775238,105.889931 
	C432.029877,105.497528 431.418121,105.353386 430.806366,105.209244 
	C430.806366,105.209244 430.900391,105.155930 430.764221,104.906662 
	C430.019440,104.509468 429.410858,104.361542 428.802277,104.213615 
	C428.802277,104.213615 428.889069,104.157501 428.775543,103.920479 
	C428.112549,103.086937 427.563080,102.490425 427.013580,101.893913 
	C432.276794,104.214394 437.769897,106.124222 442.766449,108.921097 
	C478.813904,129.099060 497.269623,160.767441 501.868073,201.065887 
	C503.162811,212.412308 503.285461,223.898788 503.752838,235.328918 
	C503.873260,238.274582 503.262329,241.250137 502.539673,244.718002 
	C501.399597,248.818680 500.707275,252.413315 500.001709,256.440247 
	C500.016602,257.448669 500.044769,258.024780 500.072906,258.600891 
	C500.072906,258.600891 500.025208,258.536285 499.803040,258.818298 
	C499.400574,259.592804 499.220245,260.085266 499.039886,260.577728 
	C499.039886,260.577728 498.962555,260.473694 498.984497,260.872620 
	C497.729889,265.699615 496.673859,270.205811 495.137756,274.541962 
	C489.170197,291.387634 480.470154,306.790527 469.407104,320.764008 
	C459.516541,333.256531 447.196472,342.928223 432.695435,349.625244 
	C428.243683,351.681183 423.500305,353.105621 418.955872,354.530182 
	C419.680328,353.519073 420.339355,352.797058 420.998413,352.075012 
	C427.609802,348.229950 434.221191,344.384949 441.419464,340.284119 
	C443.261719,338.910736 444.517090,337.793152 445.772491,336.675598 
	C445.772491,336.675598 445.823517,336.786530 446.049927,336.742493 
	C446.483246,336.396393 446.690186,336.094330 446.897156,335.792297 
	C446.897156,335.792297 446.902435,335.891876 447.211975,335.888855 
	C448.751221,334.583740 449.980927,333.281647 451.210632,331.979553 
	C451.210663,331.979584 451.273895,331.894623 451.685120,331.846008 
	C452.641602,331.095001 453.186859,330.392578 453.732117,329.690155 
	C453.732117,329.690155 453.862244,329.929962 454.062592,329.801270 
	C454.412445,329.346527 454.561981,329.020477 454.711487,328.694397 
	C454.711487,328.694397 454.984070,328.919067 455.125183,328.794983 
	C455.409546,328.342804 455.552826,328.014740 455.696075,327.686646 
	C455.696075,327.686646 456.012604,327.923218 456.136475,327.797974 
	C456.404327,327.345032 456.548340,327.017334 456.692383,326.689636 
	C456.692383,326.689636 456.929779,326.844208 457.126678,326.730103 
	C457.629425,326.039093 457.935272,325.462189 458.241089,324.885254 
	C458.241089,324.885254 458.297729,324.906006 458.671997,324.817505 
	C460.242035,323.033081 461.437805,321.337158 462.633545,319.641235 
	C462.633545,319.641235 462.687805,319.950531 462.992401,319.786804 
	C463.787659,318.672699 464.278290,317.722321 464.768951,316.771912 
	C464.768951,316.771912 464.883789,316.858215 465.154419,316.775940 
	C466.207611,315.390137 466.990143,314.086578 467.772705,312.783020 
	C467.772705,312.783020 467.873871,312.862122 468.114929,312.765869 
	C468.566925,312.101349 468.777832,311.533112 468.988708,310.964844 
	C468.988708,310.964844 469.005280,311.002747 469.244690,310.902893 
	C469.682495,310.301422 469.880890,309.799805 470.079224,309.298218 
z"/>
<path fill="#285FF1" opacity="1.000000" stroke="none" 
	d="
M499.220642,554.779175 
	C497.257233,553.886047 495.560974,552.795898 493.137573,551.238464 
	C498.842102,545.237305 503.782043,539.749146 509.027435,534.570312 
	C539.430847,504.553070 569.929626,474.632355 600.343872,444.626007 
	C610.010498,435.089081 619.498169,425.371033 629.128784,415.797211 
	C629.996277,414.934845 631.313110,414.524506 632.804565,413.882904 
	C636.275208,417.186279 635.262878,419.957306 632.327271,422.859314 
	C600.517822,454.304504 568.757996,485.800018 536.996948,517.294128 
	C524.478210,529.707642 511.989960,542.151917 499.220642,554.779175 
z"/>
<path fill="#2860F5" opacity="1.000000" stroke="none" 
	d="
M418.890472,354.819214 
	C423.500305,353.105621 428.243683,351.681183 432.695435,349.625244 
	C447.196472,342.928223 459.516541,333.256531 469.407104,320.764008 
	C480.470154,306.790527 489.170197,291.387634 495.137756,274.541962 
	C496.673859,270.205811 497.729889,265.699615 499.032776,260.829407 
	C499.685028,260.974121 500.310944,261.560974 500.627014,262.799438 
	C500.298370,263.820129 500.279541,264.189209 500.260742,264.558289 
	C500.173309,265.183136 500.085876,265.807953 499.674408,266.926697 
	C499.309021,267.786224 499.267670,268.151825 499.226318,268.517426 
	C499.152710,269.463593 499.079102,270.409760 498.676971,271.894043 
	C498.312988,272.801941 498.277557,273.171722 498.242096,273.541534 
	C494.039062,291.827240 485.424683,308.016663 474.817322,323.306549 
	C453.926300,353.419617 424.164154,367.797699 388.676392,371.909485 
	C379.480347,372.974976 370.202271,373.332703 360.302856,373.789368 
	C357.454407,370.740204 355.264954,367.917206 353.518433,365.050812 
	C357.281372,364.712921 360.601440,364.418427 363.921478,364.123932 
	C365.631378,363.868286 367.341278,363.612640 369.689758,363.547150 
	C371.464478,363.835205 372.644928,364.184265 373.730011,363.992859 
	C387.124176,361.630249 400.504425,359.188751 414.211761,356.803345 
	C415.110962,356.278351 415.686615,355.717682 416.594177,355.137146 
	C417.580872,355.017883 418.235687,354.918549 418.890472,354.819214 
z"/>
<path fill="#294CA8" opacity="1.000000" stroke="none" 
	d="
M353.075531,365.094208 
	C355.264954,367.917206 357.454407,370.740204 359.839233,373.840698 
	C369.220459,386.325348 378.353302,398.572815 387.603638,410.730927 
	C404.203125,432.548401 420.873260,454.312103 437.880249,476.153503 
	C438.246643,479.934570 438.246643,483.660400 438.246643,488.631012 
	C407.727112,448.567657 377.873016,409.377777 347.914612,369.551392 
	C347.513702,368.617218 347.217133,368.319580 346.920563,368.021942 
	C346.920563,368.021942 346.995697,368.025696 346.965210,367.701141 
	C347.316010,362.134277 351.179108,366.259918 353.075531,365.094208 
z"/>
<path fill="#2148B1" opacity="1.000000" stroke="none" 
	d="
M478.170959,520.673401 
	C476.131470,523.647461 474.055573,526.145752 470.929413,529.907959 
	C470.929413,526.928467 470.929352,525.264648 470.929413,523.600830 
	C470.930695,485.701447 470.934418,447.802063 470.931580,409.902679 
	C470.930878,400.353241 469.535339,398.461182 460.255127,395.438507 
	C469.311310,392.012207 477.901581,397.612244 477.922455,406.942657 
	C478.006836,444.694275 478.066040,482.445923 478.170959,520.673401 
z"/>
<path fill="#2148B2" opacity="1.000000" stroke="none" 
	d="
M466.130981,724.140137 
	C469.970306,721.026245 471.053619,717.062683 471.030182,712.115967 
	C470.848572,673.848267 470.925995,635.579285 470.923157,597.310730 
	C470.923096,596.489075 470.923126,595.667419 470.923126,594.845703 
	C471.248535,594.622803 471.573944,594.399841 471.899323,594.176941 
	C474.201355,597.178589 476.503418,600.180176 478.841125,603.498047 
	C478.630920,605.756653 478.174225,607.698608 478.170319,609.641541 
	C478.097198,645.806458 478.078003,681.971375 477.600952,718.629028 
	C473.479950,720.794495 469.805450,722.467285 466.130981,724.140137 
z"/>
<path fill="#2860F5" opacity="1.000000" stroke="none" 
	d="
M617.014465,727.858521 
	C617.803650,727.866150 618.592896,727.873779 619.777344,727.874023 
	C621.950317,729.784363 623.728027,731.702148 625.505737,733.619934 
	C625.263977,734.054749 625.022156,734.489624 624.780334,734.924438 
	C618.893066,734.924438 613.005859,734.925598 607.118591,734.924194 
	C599.494690,734.922363 591.857056,734.641235 584.251953,735.017883 
	C579.571228,735.249756 576.207336,734.002869 574.263062,729.105164 
	C576.194031,728.303162 577.986938,728.019226 579.781677,728.007507 
	C592.192383,727.926086 604.603516,727.901428 617.014465,727.858521 
z"/>
<path fill="#2860F5" opacity="1.000000" stroke="none" 
	d="
M216.996399,599.974182 
	C223.497971,600.445557 226.009445,595.382324 229.481812,591.140747 
	C230.213745,601.381226 227.025742,608.092896 219.822571,609.846436 
	C210.315491,612.160767 198.276093,612.244690 193.289795,602.305054 
	C199.519135,601.625793 205.730682,601.278015 212.721893,600.947021 
	C214.666489,600.633911 215.831436,600.304077 216.996399,599.974182 
z"/>
<path fill="#2961F3" opacity="1.000000" stroke="none" 
	d="
M465.881317,724.425232 
	C469.805450,722.467285 473.479950,720.794495 477.494812,719.091187 
	C478.183807,729.957764 475.470490,733.488770 464.525848,734.241821 
	C459.726807,734.571960 454.621613,733.600830 450.012787,732.113403 
	C447.957458,731.450134 446.784088,728.054199 445.386108,725.587402 
	C452.328552,727.811340 459.009888,727.316101 465.881317,724.425232 
z"/>
<path fill="#4C5F7E" opacity="1.000000" stroke="none" 
	d="
M427.009003,101.924362 
	C427.563080,102.490425 428.112549,103.086937 428.776489,103.972145 
	C418.950897,100.599472 409.010864,96.938110 398.812622,93.049301 
	C407.198486,95.296684 415.842529,97.771500 424.856232,100.798508 
	C425.838898,101.555908 426.451874,101.761101 427.064880,101.966293 
	C427.064880,101.966301 427.004425,101.954811 427.009003,101.924362 
z"/>
<path fill="#0546B1" opacity="1.000000" stroke="none" 
	d="
M617.003052,727.632935 
	C604.603516,727.901428 592.192383,727.926086 579.781677,728.007507 
	C577.986938,728.019226 576.194031,728.303162 574.114746,728.791077 
	C573.516724,728.614746 573.204285,728.108337 572.947144,727.287109 
	C587.353210,726.905334 601.703857,726.838379 616.511658,726.863770 
	C616.968750,726.956177 616.991577,727.407349 617.003052,727.632935 
z"/>
<path fill="#2657DA" opacity="1.000000" stroke="none" 
	d="
M500.014954,256.007935 
	C500.707275,252.413315 501.399597,248.818680 502.457642,245.136597 
	C502.858887,246.100281 502.894440,247.151413 502.733032,248.683197 
	C502.305573,249.480774 502.348267,249.762146 502.664185,250.007950 
	C502.438232,251.774338 502.212311,253.540726 501.565979,255.670349 
	C500.768707,256.025055 500.391815,256.016510 500.014954,256.007935 
z"/>
<path fill="#2860F5" opacity="1.000000" stroke="none" 
	d="
M500.001709,256.440247 
	C500.391815,256.016510 500.768707,256.025055 501.428467,256.032532 
	C501.418304,256.971283 501.125244,257.911102 500.452545,258.725891 
	C500.044769,258.024780 500.016602,257.448669 500.001709,256.440247 
z"/>
<path fill="#1F46AF" opacity="1.000000" stroke="none" 
	d="
M426.958435,101.650452 
	C426.451874,101.761101 425.838898,101.555908 425.092773,101.037621 
	C425.590454,100.927887 426.221222,101.131248 426.958435,101.650452 
z"/>
<path fill="#2657DA" opacity="1.000000" stroke="none" 
	d="
M498.447815,273.340454 
	C498.277557,273.171722 498.312988,272.801941 498.544128,272.227600 
	C498.711090,272.395172 498.682312,272.767273 498.447815,273.340454 
z"/>
<path fill="#2657DA" opacity="1.000000" stroke="none" 
	d="
M499.435242,268.322815 
	C499.267670,268.151825 499.309021,267.786224 499.547180,267.220764 
	C499.710693,267.389984 499.677460,267.759125 499.435242,268.322815 
z"/>
<path fill="#2657DA" opacity="1.000000" stroke="none" 
	d="
M500.458405,264.350464 
	C500.279541,264.189209 500.298370,263.820129 500.502625,263.239502 
	C500.677399,263.399506 500.666718,263.771088 500.458405,264.350464 
z"/>
<path fill="#2860F5" opacity="1.000000" stroke="none" 
	d="
M499.639343,260.571838 
	C499.220245,260.085266 499.400574,259.592804 499.837952,258.798462 
	C500.142914,259.186371 500.190857,259.876190 499.639343,260.571838 
z"/>
<path fill="#1F46AF" opacity="1.000000" stroke="none" 
	d="
M502.780884,249.764023 
	C502.348267,249.762146 502.305573,249.480774 502.677521,249.074432 
	C502.845154,249.163361 502.871399,249.341721 502.780884,249.764023 
z"/>
<path fill="#1F438A" opacity="1.000000" stroke="none" 
	d="
M352.101929,122.653595 
	C343.866486,122.655113 335.398560,122.311745 326.462341,121.925430 
	C324.415436,121.581482 322.837128,121.020157 321.258026,121.017982 
	C290.107056,120.975060 258.955414,121.085297 227.805420,120.907410 
	C223.302246,120.881691 221.903427,121.973724 221.907272,126.674675 
	C222.033051,279.931274 222.027191,433.188049 221.904953,586.444702 
	C221.902512,589.514465 220.285980,592.582886 219.038940,595.716797 
	C219.434784,591.250305 220.891922,586.719543 220.895432,582.187683 
	C221.013092,430.050659 221.009308,277.913483 220.905411,125.776421 
	C220.902420,121.400902 221.707001,119.785683 226.567535,119.831123 
	C260.224426,120.145805 293.885712,119.990746 327.542786,120.296349 
	C335.657074,120.370033 343.760803,121.606804 352.101929,122.653595 
z"/>
<path fill="#324F8D" opacity="1.000000" stroke="none" 
	d="
M418.955872,354.530151 
	C418.235687,354.918549 417.580872,355.017883 416.255981,355.108276 
	C415.020020,355.655426 414.454132,356.211517 413.888245,356.767639 
	C400.504425,359.188751 387.124176,361.630249 373.730011,363.992859 
	C372.644928,364.184265 371.464478,363.835205 370.036194,363.409363 
	C387.091888,361.721558 403.894196,357.896454 420.608459,351.993134 
	C420.339355,352.797058 419.680328,353.519073 418.955872,354.530151 
z"/>
<path fill="#4C5F7E" opacity="1.000000" stroke="none" 
	d="
M480.965942,153.303589 
	C484.048035,160.690674 487.049255,168.460724 490.009521,176.649170 
	C486.940796,169.273880 483.912964,161.480209 480.965942,153.303589 
z"/>
<path fill="#4C5F7E" opacity="1.000000" stroke="none" 
	d="
M494.807800,242.326111 
	C493.628540,249.610077 492.280212,257.250122 490.584564,264.998474 
	C491.704376,257.631958 493.171570,250.157089 494.807800,242.326111 
z"/>
<path fill="#1F438A" opacity="1.000000" stroke="none" 
	d="
M353.518433,365.050812 
	C351.179108,366.259918 347.316010,362.134277 346.935059,367.723602 
	C345.930206,366.922638 344.925079,365.774658 343.380981,364.011139 
	C350.591217,364.011139 356.796722,364.011139 363.461853,364.067535 
	C360.601440,364.418427 357.281372,364.712921 353.518433,365.050812 
z"/>
<path fill="#4C5F7E" opacity="1.000000" stroke="none" 
	d="
M571.745605,664.564514 
	C574.706665,667.990784 577.721252,671.763123 580.783142,675.887695 
	C577.819946,672.463440 574.809509,668.687073 571.745605,664.564514 
z"/>
<path fill="#4C5F7E" opacity="1.000000" stroke="none" 
	d="
M454.940918,121.456421 
	C457.095001,122.990288 459.363800,124.841026 461.655792,127.042015 
	C459.471191,125.519272 457.263458,123.646286 454.940918,121.456421 
z"/>
<path fill="#1F438A" opacity="1.000000" stroke="none" 
	d="
M217.146057,599.665894 
	C215.831436,600.304077 214.666489,600.633911 213.135712,600.939331 
	C214.526550,599.251770 216.283188,597.588684 218.339005,595.814697 
	C218.190674,596.921753 217.743179,598.139648 217.146057,599.665894 
z"/>
<path fill="#4C5F7E" opacity="1.000000" stroke="none" 
	d="
M591.609680,690.801147 
	C593.001648,692.195923 594.473633,693.911377 595.940674,696.011108 
	C594.520386,694.637573 593.105042,692.879639 591.609680,690.801147 
z"/>
<path fill="#4C5F7E" opacity="1.000000" stroke="none" 
	d="
M432.972412,106.483673 
	C435.096069,107.318642 437.386047,108.451347 439.767761,109.925415 
	C437.619232,109.104996 435.378998,107.943207 432.972412,106.483673 
z"/>
<path fill="#4C5F7E" opacity="1.000000" stroke="none" 
	d="
M462.325439,319.766235 
	C461.437805,321.337158 460.242035,323.033081 458.677673,324.787842 
	C459.545166,323.194885 460.781219,321.543060 462.325439,319.766235 
z"/>
<path fill="#4C5F7E" opacity="1.000000" stroke="none" 
	d="
M449.970093,117.450684 
	C451.481995,118.269165 453.111389,119.398064 454.823547,120.863625 
	C453.300049,120.053886 451.693817,118.907486 449.970093,117.450684 
z"/>
<path fill="#4C5F7E" opacity="1.000000" stroke="none" 
	d="
M445.450470,336.731689 
	C444.517090,337.793152 443.261719,338.910736 441.671387,340.033478 
	C442.600464,338.954987 443.864441,337.871368 445.450470,336.731689 
z"/>
<path fill="#4C5F7E" opacity="1.000000" stroke="none" 
	d="
M467.463806,312.886963 
	C466.990143,314.086578 466.207611,315.390137 465.083008,316.768738 
	C465.545593,315.559479 466.350250,314.275208 467.463806,312.886963 
z"/>
<path fill="#4C5F7E" opacity="1.000000" stroke="none" 
	d="
M487.525879,553.486206 
	C488.556610,554.283875 489.691254,555.413635 490.765472,556.906006 
	C489.679993,556.118469 488.654877,554.968384 487.525879,553.486206 
z"/>
<path fill="#4C5F7E" opacity="1.000000" stroke="none" 
	d="
M450.884308,332.084137 
	C449.980927,333.281647 448.751221,334.583740 447.168915,335.863708 
	C448.063538,334.623962 449.310760,333.406342 450.884308,332.084137 
z"/>
<path fill="#4C5F7E" opacity="1.000000" stroke="none" 
	d="
M445.911835,114.521248 
	C447.087433,114.986824 448.404816,115.749420 449.818298,116.844208 
	C448.627472,116.390358 447.340546,115.604317 445.911835,114.521248 
z"/>
<path fill="#4C5F7E" opacity="1.000000" stroke="none" 
	d="
M491.974426,559.350525 
	C492.827332,559.927856 493.723389,560.821960 494.579651,562.067627 
	C493.699127,561.501831 492.858368,560.584595 491.974426,559.350525 
z"/>
<path fill="#4C5F7E" opacity="1.000000" stroke="none" 
	d="
M464.469482,316.874512 
	C464.278290,317.722321 463.787659,318.672699 462.942261,319.638031 
	C463.115051,318.761017 463.642548,317.869049 464.469482,316.874512 
z"/>
<path fill="#4C5F7E" opacity="1.000000" stroke="none" 
	d="
M494.583252,562.765259 
	C495.300934,563.154480 496.071533,563.851868 496.786011,564.903381 
	C496.031982,564.529419 495.334045,563.801453 494.583252,562.765259 
z"/>
<path fill="#4C5F7E" opacity="1.000000" stroke="none" 
	d="
M583.790527,680.461914 
	C584.483093,680.893677 585.216858,681.643433 585.953491,682.731323 
	C585.248108,682.306274 584.539856,681.543152 583.790527,680.461914 
z"/>
<path fill="#4C5F7E" opacity="1.000000" stroke="none" 
	d="
M469.647095,136.667908 
	C470.354706,137.071213 471.122711,137.782242 471.853149,138.844879 
	C471.112885,138.456207 470.410217,137.715927 469.647095,136.667908 
z"/>
<path fill="#4C5F7E" opacity="1.000000" stroke="none" 
	d="
M442.945740,112.483582 
	C443.769775,112.663269 444.725037,113.135643 445.767517,113.944656 
	C444.928833,113.779617 444.002930,113.277939 442.945740,112.483582 
z"/>
<path fill="#4C5F7E" opacity="1.000000" stroke="none" 
	d="
M471.801239,139.458252 
	C472.501282,139.981018 473.240631,140.842758 473.980530,142.082397 
	C473.267548,141.572601 472.554047,140.684921 471.801239,139.458252 
z"/>
<path fill="#4C5F7E" opacity="1.000000" stroke="none" 
	d="
M496.750305,565.518799 
	C497.449310,566.009277 498.193085,566.827148 498.919861,568.011353 
	C498.200256,567.533813 497.497681,566.690002 496.750305,565.518799 
z"/>
<path fill="#4C5F7E" opacity="1.000000" stroke="none" 
	d="
M439.923279,110.518593 
	C440.756561,110.672806 441.724731,111.119781 442.788910,111.899635 
	C441.942688,111.758797 441.000427,111.285072 439.923279,110.518593 
z"/>
<path fill="#4C5F7E" opacity="1.000000" stroke="none" 
	d="
M587.720947,685.551025 
	C588.426147,685.979187 589.166077,686.724976 589.880981,687.816589 
	C589.155884,687.397827 588.455872,686.633240 587.720947,685.551025 
z"/>
<path fill="#4C5F7E" opacity="1.000000" stroke="none" 
	d="
M464.608582,130.827652 
	C465.331451,131.160583 466.129242,131.789566 466.920166,132.766037 
	C466.170044,132.450256 465.426758,131.786972 464.608582,130.827652 
z"/>
<path fill="#4C5F7E" opacity="1.000000" stroke="none" 
	d="
M585.962769,683.338562 
	C586.553833,683.552979 587.183472,684.069580 587.753418,684.926819 
	C587.129578,684.725281 586.565430,684.183044 585.962769,683.338562 
z"/>
<path fill="#4C5F7E" opacity="1.000000" stroke="none" 
	d="
M569.881958,662.273682 
	C570.467896,662.500244 571.135254,663.034119 571.760498,663.921326 
	C571.133362,663.710083 570.548401,663.145630 569.881958,662.273682 
z"/>
<path fill="#4C5F7E" opacity="1.000000" stroke="none" 
	d="
M581.677368,677.606873 
	C582.380371,678.030518 583.126404,678.768799 583.833862,679.856445 
	C583.103699,679.444336 582.412048,678.682861 581.677368,677.606873 
z"/>
<path fill="#4C5F7E" opacity="1.000000" stroke="none" 
	d="
M467.806885,134.447739 
	C468.403687,134.665649 469.030243,135.193573 469.638367,136.052094 
	C469.025543,135.841049 468.431091,135.299393 467.806885,134.447739 
z"/>
<path fill="#4C5F7E" opacity="1.000000" stroke="none" 
	d="
M461.681580,127.634659 
	C462.279114,127.813965 462.947906,128.287674 463.581177,129.098618 
	C462.948029,128.933578 462.350403,128.431320 461.681580,127.634659 
z"/>
<path fill="#4C5F7E" opacity="1.000000" stroke="none" 
	d="
M453.403137,329.767731 
	C453.186859,330.392578 452.641602,331.095001 451.737732,331.851746 
	C451.944153,331.219177 452.509155,330.532257 453.403137,329.767731 
z"/>
<path fill="#4C5F7E" opacity="1.000000" stroke="none" 
	d="
M428.964325,104.483994 
	C429.410858,104.361542 430.019440,104.509468 430.764343,104.960724 
	C430.309265,105.094154 429.717804,104.924263 428.964325,104.483994 
z"/>
<path fill="#4C5F7E" opacity="1.000000" stroke="none" 
	d="
M469.845886,309.435577 
	C469.880890,309.799805 469.682495,310.301422 469.223999,310.902191 
	C469.180115,310.525238 469.396301,310.049072 469.845886,309.435577 
z"/>
<path fill="#4C5F7E" opacity="1.000000" stroke="none" 
	d="
M468.719360,311.105652 
	C468.777832,311.533112 468.566925,312.101349 468.050720,312.765442 
	C467.980316,312.322998 468.215179,311.784698 468.719360,311.105652 
z"/>
<path fill="#4C5F7E" opacity="1.000000" stroke="none" 
	d="
M430.963501,105.483299 
	C431.418121,105.353386 432.029877,105.497528 432.775116,105.946579 
	C432.312592,106.086777 431.716614,105.922066 430.963501,105.483299 
z"/>
<path fill="#4C5F7E" opacity="1.000000" stroke="none" 
	d="
M457.939331,325.013031 
	C457.935272,325.462189 457.629425,326.039093 456.995911,326.675598 
	C456.991364,326.203735 457.314453,325.672272 457.939331,325.013031 
z"/>
<path fill="#4C5F7E" opacity="1.000000" stroke="none" 
	d="
M490.705627,557.504517 
	C491.108582,557.607910 491.535156,558.015015 491.960297,558.742554 
	C491.548950,558.644775 491.139069,558.226501 490.705627,557.504517 
z"/>
<path fill="#4C5F7E" opacity="1.000000" stroke="none" 
	d="
M456.423950,326.735474 
	C456.548340,327.017334 456.404327,327.345032 455.971863,327.689148 
	C455.840820,327.397491 455.998199,327.089386 456.423950,326.735474 
z"/>
<path fill="#4C5F7E" opacity="1.000000" stroke="none" 
	d="
M455.426422,327.735229 
	C455.552826,328.014740 455.409546,328.342804 454.979065,328.695770 
	C454.846832,328.408356 455.001801,328.096069 455.426422,327.735229 
z"/>
<path fill="#4C5F7E" opacity="1.000000" stroke="none" 
	d="
M454.439362,328.739258 
	C454.561981,329.020477 454.412445,329.346527 453.975769,329.696075 
	C453.848145,329.407745 454.007690,329.095917 454.439362,328.739258 
z"/>
<path fill="#4C5F7E" opacity="1.000000" stroke="none" 
	d="
M446.612976,335.825928 
	C446.690186,336.094330 446.483246,336.396393 445.990662,336.727844 
	C445.912903,336.458038 446.120819,336.158813 446.612976,335.825928 
z"/>
<path fill="#4C5F7E" opacity="1.000000" stroke="none" 
	d="
M580.769043,676.442200 
	C581.047058,676.356628 581.355591,676.551636 581.676514,677.034668 
	C581.392456,677.122681 581.096008,676.922729 580.769043,676.442200 
z"/>
<path fill="#4C5F7E" opacity="1.000000" stroke="none" 
	d="
M589.830444,688.378174 
	C590.109619,688.298523 590.412354,688.505188 590.731079,688.999268 
	C590.449402,689.079224 590.151672,688.871765 589.830444,688.378174 
z"/>
<path fill="#4C5F7E" opacity="1.000000" stroke="none" 
	d="
M590.701111,689.494385 
	C590.986084,689.426819 591.288269,689.620239 591.542236,690.100830 
	C591.235474,690.177124 590.976868,689.966187 590.701111,689.494385 
z"/>
<path fill="#4C5F7E" opacity="1.000000" stroke="none" 
	d="
M463.639648,129.713211 
	C463.904205,129.607651 464.215973,129.727783 464.485077,130.125092 
	C464.100800,130.394287 463.848938,130.239822 463.639648,129.713211 
z"/>
<path fill="#4C5F7E" opacity="1.000000" stroke="none" 
	d="
M466.907806,133.335205 
	C467.175995,133.249146 467.471802,133.449448 467.812439,133.924347 
	C467.549988,134.006454 467.242706,133.814011 466.907806,133.335205 
z"/>
<path fill="#1F438A" opacity="1.000000" stroke="none" 
	d="
M346.948273,368.354584 
	C347.217133,368.319580 347.513702,368.617218 347.883392,369.231079 
	C347.629639,369.260620 347.302826,368.973907 346.948273,368.354584 
z"/>
<path fill="#1F46AF" opacity="1.000000" stroke="none" 
	d="
M414.211731,356.803314 
	C414.454132,356.211517 415.020020,355.655426 415.924072,355.128174 
	C415.686615,355.717682 415.110962,356.278351 414.211731,356.803314 
z"/>
</svg>